/* XPM */
static char *dummy[]={
"32 32 6 1",
". c #000000",
"b c #333333",
"a c #666666",
"c c #999999",
"d c #cccccc",
"# c #ff0000",
"................................",
"................................",
"................................",
"...............#.#..............",
"..............#..#..............",
"............#.#....##...........",
"..........#.###..aaa...#........",
"............#...aaaa............",
"...........#...bcdddaa..........",
"........#.#.....cdddaba.........",
".......#....#..cacddcaaa........",
"...............cacdddcca.#......",
".........###.#.acddccccb........",
"...........#..acddcaacab........",
".......#.##..aaddcaaaa..........",
"............acddca..............",
"...........acddca.......#.......",
"......aa..acddca................",
".....aaaaaaddca......#..........",
"....aaddaaddca.......#..........",
"....aadddddca........##.........",
"....aaddddca.........#..........",
".....acccdca....................",
"......bbacccb...................",
".......aacccb...................",
"........abb.....................",
"................................",
"................................",
"................................",
"................................",
"................................",
"................................"};
