/* XPM */
static char *dummy[]={
"32 32 6 1",
". c #000000",
"# c #330000",
"a c #660000",
"b c #990000",
"d c #cc0000",
"c c #ff0000",
".......#aaaaaaaaaaaaaaaa#.......",
".....bcdbbbbbbbbbbbbbbbbdcb.....",
"...#ca....................ac#...",
"..#d........................d#..",
"..c..........................c..",
".ba..........................ab.",
".c............................c.",
"#d............................d#",
"ab............................ba",
"ab............................ab",
"ab............................ab",
"ab............................ab",
"ab............................ab",
"ab............................ab",
"ab............................ab",
"ab............................ab",
"ab............................ab",
"ab............................ab",
"ab............................ab",
"ab............................ab",
"ab............................ab",
"ab............................ab",
"ab............................ab",
"ab............................ba",
"#d............................d#",
".c............................c.",
".ba..........................ab.",
"..c..........................c..",
"..#d........................d#..",
"...#ca....................ac#...",
".....bcdbaaaaaaaaaaaaaabdcb.....",
".......#abbbbbbbbbbbbbba#......."};
