/* XPM */
static char *dummy[]={
"32 32 5 1",
". c #000000",
"a c #663300",
"b c #996633",
"c c #cc9933",
"# c #ffffff",
"................................",
"................................",
"................................",
"................................",
"................................",
"................................",
".............###................",
"............##a#................",
"....#########aa#................",
"...##bbccccccab#................",
"...#bbbcc..cccc##...............",
"...#bbcccccccccc#...............",
"...#bccccccccccc##..............",
"...#bcccccccccccc#########......",
"...########cccccccccccccc##.....",
"..........##cccccccccccccc#.....",
"...........#ccccccccbbcccc#.....",
"...........#cccccccccccccc#.....",
"...........#ccccccbbccbbcc#.....",
"...........##ccccccccccccc#.....",
"............#acccccccccccc##....",
"...........##aaa######cccca##...",
"...........#aaa##....####aaa#...",
"...........#aa##........##aa#...",
"...........##a#..........##a#...",
"............###...........###...",
"................................",
"................................",
"................................",
"................................",
"................................",
"................................"};
