/* XPM */
static char *dummy[]={
"32 32 7 1",
"c c #000000",
". c #000033",
"d c #000066",
"# c #000099",
"e c #0000cc",
"a c #0000ff",
"b c #330000",
".##############################.",
"#aaaaaaaaaaaaaaaaaaaaaaaaaaaaaa#",
"#aaaaaaaaaaaaaaaaaaaaaaaaaaaaaa#",
"#aaa########################aaa#",
"#aa#bcccccccccccccccccccccccdaa#",
"#aa#cccccccccccccccccccccccc.aa#",
"#aa#cccccccccccccccccccccccc.aa#",
"#aa#cccccccccccccccccccccccc.aa#",
"#aa#cccccccccccccccccccccccc.aa#",
"#aa#cccccccccccccccccccccccc.aa#",
"#aa#cccccccccccccccccccccccc.aa#",
"#aa#cccccccccccccccccccccccc.aa#",
"#aa#cccccccccccccccccccccccc.aa#",
"#aa#cccccccccccccccccccccccc.aa#",
"#aa#cccccccccccccccccccccccc.aa#",
"#aa#cccccccccccccccccccccccc.aa#",
"#aa#cccccccccccccccccccccccc.aa#",
"#aa#cccccccccccccccccccccccc.aa#",
"#aa#cccccccccccccccccccccccc.aa#",
"#aa#cccccccccccccccccccccccc.aa#",
"#aa#cccccccccccccccccccccccc.aa#",
"#aa#cccccccccccccccccccccccc.aa#",
"#aa#cccccccccccccccccccccccc.aa#",
"#aa#cccccccccccccccccccccccc.aa#",
"#aa#cccccccccccccccccccccccc.aa#",
"#aa#cccccccccccccccccccccccc.aa#",
"#aa#cccccccccccccccccccccccc.aa#",
"#aa#cccccccccccccccccccccccc.aa#",
"#aaad.......................eaa#",
"#aaaaaaaaaaaaaaaaaaaaaaaaaaaaaa#",
"#aaaaaaaaaaaaaaaaaaaaaaaaaaaaaa#",
".##############################."};
